<svg xmlns="http://www.w3.org/2000/svg" width="1136" height="792"><ellipse fill="#DEEDFA" cx="692.675" cy="365.677" rx="316.917" ry="323.088"/><circle fill="#DEEDFA" cx="377.318" cy="414.757" r="288.517"/><path fill="#ADC0D1" d="M933 244.889h6.059v465.033H933z"/><path fill="#ADC0D1" d="M937.831 258.644c8.753-4.446 38.11-25.154 2.261-91.213-1.926-3.548-7.073-3.572-8.925.015-10.534 20.411-33.768 73.996 2.278 91.258a4.987 4.987 0 004.386-.06zM939.182 314.385c8.288 5.246 41.037 19.865 79.437-44.595 2.066-3.468-.544-7.906-4.574-7.664-22.903 1.376-80.728 8.782-77.155 48.52a4.977 4.977 0 002.292 3.739z"/><path fill="#ADC0D1" d="M933.622 314.385c-8.287 5.246-41.036 19.865-79.437-44.595-2.065-3.468.545-7.906 4.575-7.664 22.903 1.376 80.728 8.782 77.155 48.52a4.984 4.984 0 01-2.293 3.739zM939.269 399.553c9.014 5.865 47.474 24.188 92.545-52.405 2.042-3.471-.572-7.844-4.594-7.628-25.368 1.365-94.841 9.387-90.22 56.341a5.003 5.003 0 002.269 3.692z"/><path fill="#ADC0D1" d="M933.536 399.553c-9.015 5.865-47.474 24.188-92.545-52.405-2.043-3.471.571-7.844 4.593-7.628 25.369 1.365 94.842 9.387 90.221 56.341a5.006 5.006 0 01-2.269 3.692zM939.387 500.151c10.042 6.78 58.24 31.78 114.709-65.536 2.01-3.463-.521-7.793-4.521-7.61-29.084 1.333-118.759 10.244-112.388 69.505a5.056 5.056 0 002.2 3.641z"/><path fill="#ADC0D1" d="M933.417 500.151c-10.041 6.78-58.24 31.78-114.709-65.536-2.009-3.463.522-7.793 4.522-7.61 29.084 1.333 118.758 10.244 112.387 69.505a5.056 5.056 0 01-2.2 3.641zM939.574 615.691c11.247 7.848 72.353 41.951 143.924-82.93 1.952-3.406-.603-7.643-4.525-7.49-33.48 1.297-150.27 11.238-141.533 86.85a5.06 5.06 0 002.134 3.57z"/><path fill="#ADC0D1" d="M933.23 615.691c-11.247 7.848-72.353 41.951-143.924-82.93-1.953-3.406.602-7.643 4.525-7.49 33.48 1.297 150.27 11.238 141.532 86.85a5.053 5.053 0 01-2.133 3.57zM178.614 277.541h5.68v435.896h-5.68z"/><path fill="#ADC0D1" d="M183.143 290.434c8.204-4.167 35.724-23.578 2.119-85.498-1.805-3.326-6.63-3.349-8.365.014-9.874 19.131-31.652 69.359 2.135 85.541a4.675 4.675 0 004.111-.057zM184.409 342.684c7.769 4.917 38.466 18.621 74.459-41.801 1.938-3.251-.51-7.411-4.287-7.184-21.469 1.29-75.67 8.232-72.321 45.48a4.671 4.671 0 002.149 3.505z"/><path fill="#ADC0D1" d="M179.198 342.684c-7.769 4.917-38.466 18.621-74.46-41.801-1.937-3.251.511-7.411 4.288-7.184 21.469 1.29 75.67 8.232 72.321 45.48a4.671 4.671 0 01-2.149 3.505zM184.49 422.515c8.449 5.498 44.499 22.673 86.746-49.121 1.915-3.253-.535-7.353-4.305-7.15-23.779 1.28-88.899 8.799-84.568 52.811a4.698 4.698 0 002.127 3.46z"/><path fill="#ADC0D1" d="M179.117 422.515c-8.449 5.498-44.499 22.673-86.746-49.121-1.915-3.253.535-7.353 4.305-7.15 23.779 1.28 88.899 8.799 84.567 52.811a4.691 4.691 0 01-2.126 3.46zM184.602 516.811c9.412 6.355 54.591 29.789 107.521-61.43 1.884-3.246-.488-7.305-4.238-7.134-27.262 1.249-111.317 9.603-105.346 65.149a4.741 4.741 0 002.063 3.415z"/><path fill="#ADC0D1" d="M179.006 516.811c-9.412 6.355-54.591 29.789-107.522-61.43-1.884-3.246.489-7.305 4.239-7.134 27.262 1.249 111.317 9.603 105.346 65.149a4.744 4.744 0 01-2.063 3.415zM184.776 625.112c10.543 7.355 67.82 39.321 134.907-77.735 1.83-3.192-.564-7.163-4.242-7.021-31.383 1.217-140.854 10.535-132.665 81.409a4.754 4.754 0 002 3.347z"/><path fill="#ADC0D1" d="M178.831 625.112c-10.543 7.355-67.82 39.321-134.907-77.735-1.83-3.192.564-7.163 4.242-7.021 31.383 1.217 140.854 10.535 132.665 81.409a4.75 4.75 0 01-2 3.347z"/><g><path fill="#8DA9BD" d="M157.331 717.311a2.118 2.118 0 001.639-2.434c-8.464-48.418-69.289-99.732-71.874-101.893a2.116 2.116 0 10-2.714 3.246c.621.52 62.224 52.49 70.42 99.375a2.117 2.117 0 002.449 1.721l.08-.015z"/><path fill="#8DA9BD" d="M120.191 680.313c-3.045 1.328-5.887 3.189-9.106 4.009s-7.104.31-9.098-2.35c-2.659-3.548-.496-8.872 2.97-11.638 4.461-3.561 10.578-4.481 16.237-3.736 5.658.744 10.997 2.984 16.256 5.201-2.92-7.211-2.835-15.586.23-22.735 1.991-4.644 6.653-9.265 11.436-7.637 3.342 1.138 5.096 5.062 4.778 8.577-.318 3.516-2.247 6.668-4.328 9.52-2.082 2.85-4.399 5.603-5.705 8.883-1.541 3.871-1.524 8.338.045 12.199-7.385-3.439-16.246-3.548-23.715-.293z"/><path fill="#8DA9BD" d="M131.346 631.875c-4.348 7.934-5.641 17.492-3.56 26.295a63.259 63.259 0 00-26.429 2.518c-2.573.816-5.151 1.81-7.852 1.856-2.699.046-5.623-1.091-6.825-3.509-1.326-2.668-.085-6.063 2.164-8.018 2.248-1.955 5.259-2.762 8.192-3.289 7.736-1.392 15.987-1.189 23.109 2.138a41.006 41.006 0 01-2.305-18.289c.443-4.329 1.818-8.94 5.364-11.464 3.545-2.523 9.628-1.504 10.822 2.68.894 3.123-1.12 6.234-2.68 9.082z"/><path fill="#8DA9BD" d="M108.164 636.022a20.556 20.556 0 01.813-13.896c1.251-2.898 3.16-5.471 4.458-8.348s1.935-6.313.54-9.144c-1.267-2.573-4.133-4.2-7-4.203s-5.642 1.52-7.381 3.799c-2.366 3.101-2.813 7.278-2.454 11.163.359 3.884 1.43 7.678 1.754 11.564-5.536-3.688-12.742-3.576-19.324-2.604-4.653.687-9.715 2.035-12.331 5.945-.678 1.014-1.159 2.188-1.192 3.406-.106 3.893 4.38 6.515 8.267 6.264 3.886-.252 7.361-2.368 10.986-3.791 7.256-2.847 15.569-2.904 22.864-.155z"/><path fill="#8DA9BD" d="M68.712 586.424c3.076-1.51 6.821.104 9.382 2.38 5.01 4.454 7.405 11.071 9.612 17.399l5.44 15.598c-5.928-2.067-10.765-6.367-15.434-10.564-3.884-3.492-7.831-7.063-10.463-11.574-1.258-2.158-2.209-4.584-2.131-7.08.078-2.497 1.353-5.059 3.594-6.159z"/></g><g><path fill="#8DA9BD" d="M1042.928 709.131H117.623c-5.634 0-10.243 4.609-10.243 10.242v.001c0 5.634 4.609 10.243 10.243 10.243h925.305c5.633 0 10.242-4.609 10.242-10.243v-.001c0-5.633-4.609-10.242-10.242-10.242z"/></g><g><path fill="#8DA9BD" d="M759.228 689.771c1.414-2.601 2.466-5.547 2.077-8.482-.566-4.283-4.124-7.663-8.079-9.404-9.418-4.146-20.808-.484-28.539 6.305-7.732 6.789-12.587 16.189-17.264 25.355l-2.667 5.227c-1.389 2.724-2.819 5.699-2.275 8.707s4.111 5.566 6.701 3.941c7.858-13.438 22.186-22.887 37.631-24.821 2.979-.373 6.149-.536 8.63-2.229 1.656-1.13 2.827-2.838 3.785-4.599z"/><path fill="#8DA9BD" d="M740.981 636.691c1.812-4.686 2.699-10.42-.378-14.393-2.649-3.421-7.607-4.401-11.798-3.325-4.191 1.077-7.736 3.849-10.861 6.842-11.005 10.544-18.314 24.629-21.847 39.454-3.533 14.826-3.411 30.377-.916 45.412.602 3.633 2.504 8.186 6.173 7.861l12.942-32.286c2.929-7.308 5.872-14.646 9.822-21.456 5.493-9.468 12.915-17.898 16.863-28.109z"/><path fill="#8DA9BD" d="M698.77 713.988c-3.68-7.922-7.789-15.986-14.559-21.506-2.61-2.129-5.749-3.878-9.117-3.863-3.367.014-6.883 2.275-7.396 5.604-.388 2.509.967 5.027 2.859 6.721 1.893 1.691 4.271 2.719 6.584 3.762 4.476 2.018 8.963 4.264 12.434 7.736 1.269 1.27 2.416 2.713 3.979 3.598s3.728 1.045 5.013-.208c.222-.216.415-.479.462-.784.054-.365-.104-.725-.259-1.06z"/></g><g><path fill="#2B4054" d="M564.815 101.825h195.057v128.976H564.815z"/><path fill="#8DA9BD" d="M564.815 101.771h195.057v6.554H564.815z"/><circle fill="#EA5F35" cx="569.362" cy="104.96" r="1.565"/><circle fill="#ED845E" cx="574.987" cy="104.96" r="1.565"/><circle fill="#DEDEFA" cx="580.787" cy="104.96" r="1.566"/><path fill="#DCBC61" d="M594.353 164.012H575.39a1.901 1.901 0 01-1.896-1.896c0-1.043.853-1.896 1.896-1.896h18.963c1.044 0 1.896.854 1.896 1.896a1.901 1.901 0 01-1.896 1.896z"/><path fill="#ED845E" d="M600.611 171.598h-18.964a1.902 1.902 0 01-1.896-1.896c0-1.043.854-1.896 1.896-1.896h18.964c1.043 0 1.896.854 1.896 1.896a1.901 1.901 0 01-1.896 1.896z"/><path fill="#FFF" d="M663.697 180.953h-71.431a1.902 1.902 0 01-1.896-1.896c0-1.043.854-1.896 1.896-1.896h71.431c1.043 0 1.896.854 1.896 1.896a1.9 1.9 0 01-1.896 1.896zM745.4 180.953h-71.43a1.902 1.902 0 01-1.896-1.896c0-1.043.854-1.896 1.896-1.896h71.43c1.043 0 1.896.854 1.896 1.896a1.9 1.9 0 01-1.896 1.896zM678.109 200.169h-71.43a1.902 1.902 0 01-1.896-1.896c0-1.043.854-1.896 1.896-1.896h71.43c1.043 0 1.896.853 1.896 1.896a1.9 1.9 0 01-1.896 1.896zM709.462 208.514H606.68a1.902 1.902 0 01-1.896-1.896c0-1.043.854-1.896 1.896-1.896h102.782c1.044 0 1.896.854 1.896 1.896a1.901 1.901 0 01-1.896 1.896zM629.463 216.857h-23.569c-.611 0-1.11-.5-1.11-1.11v-1.572c0-.611.499-1.11 1.11-1.11h23.569c.611 0 1.11.5 1.11 1.11v1.572c0 .611-.499 1.11-1.11 1.11zM710.592 199.788h-23.57c-.61 0-1.11-.5-1.11-1.11v-1.572c0-.611.5-1.11 1.11-1.11h23.57c.61 0 1.11.5 1.11 1.11v1.572c0 .61-.5 1.11-1.11 1.11zM702.636 190.814H592.267a1.901 1.901 0 01-1.896-1.896c0-1.043.854-1.896 1.896-1.896h110.369c1.043 0 1.896.853 1.896 1.896a1.901 1.901 0 01-1.896 1.896z"/><circle fill="#DCBC61" cx="600.231" cy="197.135" r="2.149"/><circle fill="#EAAB72" cx="600.231" cy="206.997" r="2.149"/><circle fill="#EAAB72" cx="600.231" cy="214.582" r="2.149"/></g><g><path fill="#FFF" d="M497.347 219.794c.655-2.214.97-4.574.878-7.022-.395-10.497-8.554-19.429-18.964-20.837a21.703 21.703 0 00-7.172.231c.009-.313.048-.619.048-.934 0-18.442-14.95-33.392-33.393-33.392-18.441 0-33.392 14.95-33.392 33.392 0 .689.062 1.362.103 2.04a27.008 27.008 0 00-8.917-1.532c-14.979 0-27.12 12.143-27.12 27.121v.034c.003 1.875 1.612 3.356 3.487 3.356H494c1.532 0 2.912-.988 3.347-2.457z"/><path fill="#688DA4" d="M425.015 200.386h18.814v33.562h-18.814z"/><path fill="#688DA4" d="M416.624 204.199h35.85l-18.052-24.408z"/></g><g><path fill="#F8CD62" d="M812.039 281.68c-6.811 0-13.008 2.56-17.735 6.744v-67.83c0-8.163-6.616-14.78-14.778-14.78h-173.8c-8.162 0-14.778 6.617-14.778 14.78v66.984c4.461-3.319 9.973-5.307 15.961-5.307 14.801 0 26.799 11.999 26.799 26.799s-11.998 26.798-26.799 26.798c-5.988 0-11.5-1.988-15.961-5.307v63.832c0 8.161 6.616 14.779 14.778 14.779h62.241c-4.611-4.814-7.461-11.331-7.461-18.523 0-14.8 11.999-26.798 26.799-26.798 14.801 0 26.799 11.998 26.799 26.798 0 7.192-2.849 13.709-7.461 18.523h72.883c8.162 0 14.778-6.618 14.778-14.779v-65.86c4.728 4.184 10.925 6.744 17.735 6.744 14.8 0 26.799-11.998 26.799-26.798s-11.999-26.799-26.799-26.799z"/></g><g><path fill="#688DA4" d="M583.83 302.142c-7.385 0-14.07 2.989-18.918 7.82v-63.19c0-8.162-6.616-14.78-14.778-14.78H376.335c-8.162 0-14.779 6.618-14.779 14.78v57.863a26.656 26.656 0 0111.231-2.492c14.801 0 26.8 11.998 26.8 26.8 0 14.8-11.999 26.798-26.8 26.798-4.016 0-7.812-.908-11.231-2.492v67.322c0 8.162 6.617 14.779 14.779 14.779h173.799c8.162 0 14.778-6.617 14.778-14.779v-72.649c4.848 4.832 11.533 7.819 18.918 7.819 14.8 0 26.799-11.998 26.799-26.798 0-14.803-11.999-26.801-26.799-26.801z"/></g><g><path fill="#EA5F35" d="M550.134 433.772h-76.441c7.01-4.833 11.611-12.91 11.611-22.069 0-14.8-11.998-26.799-26.799-26.799s-26.799 12-26.799 26.799c0 9.159 4.602 17.236 11.611 22.069h-66.982c-8.162 0-14.779 6.616-14.779 14.78v67.13a26.711 26.711 0 00-18.917-7.818c-14.801 0-26.799 11.999-26.799 26.799s11.998 26.8 26.799 26.8c7.385 0 14.07-2.989 18.917-7.82v68.708c0 8.163 6.617 14.78 14.779 14.78h64.433a26.648 26.648 0 00-4.332 14.581c0 14.8 11.998 26.798 26.799 26.798s26.799-11.998 26.799-26.798a26.64 26.64 0 00-4.333-14.581h64.434c8.162 0 14.778-6.617 14.778-14.78V448.553c-.001-8.164-6.617-14.781-14.779-14.781z"/></g><g><path fill="#2B4054" d="M743.244 512.987c10.404 0 19.402 5.94 23.843 14.604v-79.038c0-8.164-6.616-14.78-14.778-14.78h-71.503c4.611-4.813 7.461-11.329 7.461-18.522 0-14.801-11.998-26.799-26.799-26.799s-26.799 11.998-26.799 26.799c0 7.193 2.85 13.709 7.461 18.522h-63.62c-8.163 0-14.779 6.616-14.779 14.78v65.949c-4.848-4.832-11.532-7.82-18.917-7.82-14.801 0-26.799 11.998-26.799 26.799s11.998 26.8 26.799 26.8c7.385 0 14.069-2.989 18.917-7.819v69.89c0 8.163 6.616 14.78 14.779 14.78h173.799c8.162 0 14.778-6.617 14.778-14.78v-70.368c-4.44 8.662-13.438 14.604-23.843 14.604-14.801 0-26.799-11.998-26.799-26.799 0-14.804 11.998-26.802 26.799-26.802z"/></g><g><path fill="#254E5A" d="M796.981 710.069a1.925 1.925 0 001.925-1.925v-93.129h7.543l51.091 93.414a1.924 1.924 0 103.376-1.849l-51.636-94.414c-.339-.617-.985-1-1.688-1h-10.61a1.925 1.925 0 00-1.926 1.925v95.054c0 1.063.861 1.924 1.925 1.924zM869.654 710.069a1.925 1.925 0 001.926-1.925v-93.129h7.542l51.091 93.414a1.922 1.922 0 002.613.764 1.924 1.924 0 00.764-2.613l-51.637-94.414c-.338-.617-.984-1-1.688-1h-10.611a1.925 1.925 0 00-1.925 1.925v95.054c0 1.063.862 1.924 1.925 1.924z"/><path fill="#254E5A" d="M787.036 610.125h102.513a2.896 2.896 0 012.888 2.887c0 1.588-1.3 2.889-2.888 2.889H787.036a2.897 2.897 0 01-2.888-2.889 2.896 2.896 0 012.888-2.887zM823.933 643.333h71.873a1.925 1.925 0 100-3.851h-71.873a1.925 1.925 0 100 3.851zM842.222 677.022h71.872a1.924 1.924 0 100-3.851h-71.872c-1.064 0-1.925.861-1.925 1.926s.86 1.925 1.925 1.925z"/></g><g><path fill="#E48C82" d="M833.065 595.645s-1.173-3.068-.543-15.972c.629-12.903-11.646 2.833-11.646 2.833s1.932 8.6 1.28 13.82c-.65 5.221 9.578 3.961 9.578 3.961l1.331-4.642z"/><path fill="#F8CD62" d="M833.065 595.645s.89 7.963-.455 14.313l-35.502.641s-2.141-6.145 5.683-8.615c8.13-2.57 19.464-7.387 19.464-7.387s6.022 5.269 10.81 1.048z"/><path fill="#F0EBE9" d="M832.62 610.125h-35.501s-.564-1.19-.165-3.092l36.174-.639c0 1.213-.264 2.581-.508 3.731z"/><path fill="#333" d="M822.243 601.85c-.262 0-.536-.072-.776-.21-.348-.198-.652-.528-.91-.991-.425-.76-.652-1.7-.699-2.881a11.67 11.67 0 01.219-2.734 61.158 61.158 0 01-5.193 1.134c-.408.073-.846.142-1.275.142-.446 0-.828-.072-1.172-.219-.352-.159-.57-.387-.635-.666-.082-.369.115-.75.549-1.051.953-.678 2.177-.777 3.245-.785h.104c.776 0 1.588.043 2.412.133.931.104 1.991.291 2.798.939.559.451.932 1.068 1.249 1.666.477.914.88 1.875 1.193 2.854.12.383.249.828.219 1.283-.038.537-.296.996-.687 1.224a1.31 1.31 0 01-.641.162zm-1.678-6.871c-.198.918-.279 1.85-.245 2.772.043 1.103.254 1.979.64 2.674.215.382.464.657.738.812.31.18.691.197.953.047.3-.176.434-.554.455-.85.025-.373-.086-.756-.202-1.116a17.054 17.054 0 00-1.159-2.776c-.292-.555-.635-1.121-1.128-1.52l-.052-.043zm-4.867-.928h-.104c-.995.009-2.129.1-2.979.699-.206.146-.408.369-.36.571.038.172.249.288.369.344.562.24 1.416.181 2.176.047a60.466 60.466 0 005.1-1.111c-.58-.249-1.241-.353-1.842-.417a21.244 21.244 0 00-2.36-.133zM796.954 607.267a.23.23 0 01-.231-.228.228.228 0 01.227-.236l36.008-.652h.004c.125 0 .231.1.231.228a.228.228 0 01-.228.236l-36.007.652h-.004z"/><path fill="#333" d="M823.072 606.734l-.035-.004a.225.225 0 01-.192-.262c1.094-7.563 9.026-7.842 10.177-7.842h.133a.232.232 0 01.228.24.232.232 0 01-.231.223c-.048-.004-.095-.004-.232-.004-1.391 0-8.588.348-9.619 7.451a.23.23 0 01-.229.198zM819.476 606.85a.238.238 0 01-.116-.029l-.142-.082a21.444 21.444 0 00-10.417-2.751l-8.988-.038c-.129 0-.231-.104-.231-.232s.103-.231.231-.231l8.988.038a21.88 21.88 0 0110.648 2.812l.142.081c.112.064.15.207.086.318a.236.236 0 01-.201.114zM811.238 602.383a.235.235 0 01-.188-.096l-1.743-2.377a.238.238 0 01.052-.326.232.232 0 01.326.051l1.627 2.224 12.353-6.065a.245.245 0 01.313.107.237.237 0 01-.107.314l-12.528 6.146a.34.34 0 01-.105.022z"/><path fill="#E48C82" d="M875.239 595.645s-1.173-3.068-.544-15.972c.63-12.903-11.645 2.833-11.645 2.833s1.932 8.6 1.28 13.82c-.65 5.221 9.577 3.961 9.577 3.961l1.332-4.642z"/><path fill="#F8CD62" d="M875.239 595.645s.889 7.963-.456 14.313l-35.501.641s-2.141-6.145 5.683-8.615c8.129-2.57 19.463-7.387 19.463-7.387s6.022 5.269 10.811 1.048z"/><path fill="#F0EBE9" d="M874.794 610.125h-35.502s-.564-1.19-.164-3.092l36.173-.639c0 1.213-.264 2.581-.507 3.731z"/><path fill="#333" d="M864.417 601.85c-.262 0-.536-.072-.777-.21-.348-.198-.652-.528-.909-.991-.426-.76-.653-1.7-.7-2.881-.034-.91.039-1.828.219-2.734a61.073 61.073 0 01-5.193 1.134c-.407.073-.846.142-1.274.142a2.92 2.92 0 01-1.172-.219c-.353-.159-.571-.387-.636-.666-.081-.369.116-.75.55-1.051.953-.678 2.176-.777 3.245-.785h.103c.777 0 1.588.043 2.412.133.932.104 1.992.291 2.799.939.558.451.932 1.068 1.249 1.666.477.914.88 1.875 1.193 2.854.12.383.249.828.219 1.283-.039.537-.296.996-.687 1.224-.191.106-.41.162-.641.162zm-1.679-6.871c-.197.918-.279 1.85-.244 2.772.043 1.103.253 1.979.64 2.674.214.382.464.657.738.812.309.18.69.197.952.047.301-.176.434-.554.455-.85.025-.373-.086-.756-.201-1.116a17.054 17.054 0 00-1.159-2.776c-.292-.555-.636-1.121-1.129-1.52-.017-.014-.034-.032-.052-.043zm-4.867-.928h-.103c-.996.009-2.129.1-2.979.699-.205.146-.407.369-.36.571.039.172.249.288.369.344.563.24 1.417.181 2.177.047a60.444 60.444 0 005.099-1.111c-.579-.249-1.24-.353-1.841-.417a21.293 21.293 0 00-2.362-.133zM839.127 607.267a.23.23 0 01-.231-.228.228.228 0 01.228-.236l36.007-.652h.005c.124 0 .231.1.231.228a.228.228 0 01-.228.236l-36.007.652h-.005z"/><path fill="#333" d="M865.245 606.734l-.034-.004a.226.226 0 01-.193-.262c1.095-7.563 9.026-7.842 10.177-7.842h.133a.232.232 0 01-.003.463c-.048-.004-.095-.004-.231-.004-1.391 0-8.589.348-9.619 7.451a.232.232 0 01-.23.198zM861.648 606.85a.234.234 0 01-.115-.029l-.143-.082a21.442 21.442 0 00-10.417-2.751l-8.987-.038a.232.232 0 110-.463l8.987.038c3.726.014 7.404.983 10.649 2.812l.142.081c.111.064.15.207.086.318a.235.235 0 01-.202.114zM853.411 602.383a.237.237 0 01-.188-.096l-1.742-2.377a.237.237 0 01.051-.326.232.232 0 01.326.051l1.627 2.224 12.354-6.065a.245.245 0 01.313.107.236.236 0 01-.106.314l-12.529 6.146a.346.346 0 01-.106.022z"/><path fill="#2B4054" d="M821.405 298.293c-.26 3.036.871 6.341-.603 9.008-.594 1.075-1.548 1.896-2.357 2.819-2.72 3.103-3.783 7.579-2.75 11.573.648 2.506 2.06 4.813 2.336 7.387.276 2.574-1.251 5.68-3.84 5.728 1.73.734 3.845.475 5.346-.656 1.502-1.131 2.335-3.091 2.107-4.957 1.304 1.963 1.096 4.799-.48 6.551 1.74.299 3.619-.469 4.652-1.9a2.537 2.537 0 01-1.021 2.328c3.104.47 6.386-.372 8.879-2.28a3.486 3.486 0 01-1.562 2.568l15.279.097c1.937.012 3.911.019 5.757-.567s3.576-1.874 4.189-3.711c1.081 1.513.434 3.945-1.257 4.72 1.563-.37 3.165-.756 4.5-1.651 1.334-.896 2.365-2.422 2.21-4.021 1.782 1.812 1.39 5.249-.756 6.612 2.904-.761 5.4-2.941 6.546-5.716 1.145-2.775.913-6.081-.608-8.669-1.416-2.407-3.865-4.223-4.672-6.896-1.109-3.677 1.199-8.031-.767-11.33-.956-1.604-2.738-2.556-3.793-4.098-1.268-1.853-1.31-4.274-2.202-6.334-.939-2.171-2.759-3.815-4.526-5.387-.765-.68-1.561-1.379-2.538-1.685-1.192-.374-2.493-.111-3.724-.333-.997-.18-1.906-.671-2.838-1.072-3.326-1.433-7.521-1.62-10.29.717-2.214 1.869-3.202 5.056-5.759 6.422-1.53.818-3.525.918-4.617 2.267-.554.682-.766 1.586-.841 2.466z"/><path fill="#E48C82" d="M858.917 341.146l-9.546-4.858-.852-17.985-13.638.512-.853 17.388-3.239 1.875-10.058 32.049 21.65 4.944z"/><g><path fill="#D67871" d="M834.284 330.492l.341-7.927 13.894-3.154s-1.79 10.911-14.235 11.081z"/></g><path fill="#E48C82" d="M852.156 312.028c-.613 4.049-2.818 6.869-5.344 9.881-3.642 4.343-8.092 5.705-11.943 4.677-3.617-.967-6.793-6.838-7.967-14.866-.654-4.489-1.769-11.248.318-14.884C831 290.25 838.361 292.493 844 294c5.641 1.506 11-.75 8.156 18.028z"/><g><path fill="#C25353" d="M835.914 316.897a.144.144 0 00.121-.053.831.831 0 00.137-.768.139.139 0 00-.109-.096c-.314-.051-.641-.104-.913-.262-.223-.128-.462-.379-.468-.699-.004-.243.125-.473.261-.716l.06-.107c.819-1.5.838-3.36.853-4.855.001-.082-.069-.155-.14-.147a.148.148 0 00-.144.148c-.015 1.537-.032 3.278-.814 4.71l-.058.104c-.143.255-.306.545-.301.872.006.373.24.737.611.95.287.166.615.23.915.28a.528.528 0 01-.105.397.151.151 0 00.016.208.216.216 0 00.078.034z"/></g><g><path fill="#FFF" d="M831.812 318.729s7.842.682 9.718-.085c0 0-3.41 4.262-6.138 3.75-2.728-.511-3.58-3.665-3.58-3.665z"/></g><g><path fill="#E48C82" d="M820.945 369.521s-8.437 25.755-12.211 27.087-14.554-4.891-14.554-4.891V374.17l8.527 5.685 10.467-29.429 7.771 19.095z"/></g><g><path fill="#FFF" d="M852.398 401.936s-.296-9.177 7.4-27.827l1.185 11.545 20.426-1.776s-4.44-35.228-8.585-37.892c-4.144-2.664-20.13-8.585-20.13-8.585s-15.097 7.697-20.13-.592c0 0-13.321 4.44-17.169 5.92-3.849 1.48-10.361 26.347-10.361 26.347l5.921 3.256s0 7.104 5.624 9.769l4.44 22.795 17.466 5.031 13.913-7.991z"/></g><g><path fill="#DEDEFA" d="M810.955 372.553a.223.223 0 01-.222-.221c0-2.158 1.704-5.182 3.512-8.383 1.718-3.043 3.496-6.189 3.816-8.667.016-.125.115-.184.251-.191a.225.225 0 01.192.25c-.336 2.563-2.132 5.746-3.873 8.826-1.777 3.149-3.456 6.126-3.456 8.166a.22.22 0 01-.22.22z"/></g><g><path fill="#DEDEFA" d="M831.603 375.515s9.103 7.549 19.76.888c-.001 0-10.214 11.99-19.76-.888z"/></g><g><path fill="#2B4054" d="M852.398 401.936s-23.09 4.736-31.971.592c0 0-10.064 20.13-12.137 42.332-1.568 16.801 10.503 113.266 9.911 145.829h16.522l3.761-137.244s21.021 116.706 22.205 135.355l17.467-.472s-2.669-61.173-4.444-75.086c-1.776-13.914.296-72.23-4.145-84.368s-17.169-26.938-17.169-26.938z"/></g><g><path fill="#E48C82" d="M864.351 385.395s2.221 11.73 2.221 14.098 13.653 13.099 13.653.37c0-7.697-1.627-15.837-1.627-15.837l-14.247 1.369z"/></g><g><path fill="#2B4054" d="M825.039 305.539c.043-2.832.108-5.765 1.322-8.324.819-1.727 2.112-3.175 3.389-4.597 1.057-1.178 2.128-2.368 3.439-3.254 1.96-1.325 4.361-1.891 6.727-1.928 3.562-.057 7.159 1.075 9.938 3.303 3.233 2.594 5.236 6.611 5.541 10.746.304 4.134-1.051 8.337-3.57 11.629a14.06 14.06 0 01-5.836-7.714c-.446-1.481-.646-3.037-1.224-4.472-.577-1.435-1.642-2.795-3.14-3.183-.597-.154-1.233-.146-1.812-.361-.728-.27-1.299-.866-2.03-1.123-1.946-.685-3.844 1.326-4.405 3.311s-.459 4.197-1.522 5.965c-.698 1.159-1.819 1.988-2.736 2.983-2.29 2.486-3.242 6.139-2.458 9.427-1.721-3.84-1.686-8.202-1.623-12.408z"/></g><g><path fill="#E48C82" d="M850.826 311.88s1.08-3.613 4.096-1.063c1.198 1.013-.088 5.083-4.112 4.313 0 .001-1.226-.808.016-3.25z"/></g><g><path fill="#E48C82" d="M841.32 404.395l-9.718-2.68s-8.813-.069-9.203.99c-.39 1.061 1.026 9.494 1.026 9.494s5.204-1.357 11.169-2.674c.089-.02 10.038 1.63 10.038 1.63l-3.312-6.76z"/></g><g><path fill="#E48C82" d="M835.129 402.992s-2.8-2.172-7.524-4.109c-1.801-.738-5.37-3.971-5.803-2.76s4.575 4.481 4.49 4.885c-.085.402-3.275 1.238-3.275 1.238l5.08 1.56 7.032-.814z"/></g><g><path fill="#E48C82" d="M824.972 402.252s-12.36-1.01-12.617-.002c-.257 1.009 9.795 2.117 9.795 2.117s-11.01.813-11.089 1.818c-.079 1.007 11.56.893 11.56.893s-10.368 2.816-10.182 3.721c.187.903 10.741-1.011 10.741-1.011s-7.782 3.696-7.597 4.499 7.843-2.088 7.843-2.088l5.091-1.86-3.545-8.087z"/></g><g><path fill="#E48C82" d="M835.129 402.992l32.032-6.217 12.383 7.03s1.598 6.392-8.947 8.628-36.002-2.908-36.002-2.908l.534-6.533z"/></g></g><g><path fill="#F8CD62" d="M596.139 453.754h-21.727a2.179 2.179 0 01-2.173-2.172 2.18 2.18 0 012.173-2.173h21.727a2.18 2.18 0 012.172 2.173 2.179 2.179 0 01-2.172 2.172z"/><path fill="#ED845E" d="M603.308 462.445h-21.726a2.18 2.18 0 01-2.173-2.173 2.18 2.18 0 012.173-2.173h21.726a2.18 2.18 0 012.173 2.173 2.18 2.18 0 01-2.173 2.173z"/><path fill="#FFF" d="M675.582 473.163h-81.834a2.18 2.18 0 01-2.172-2.173c0-1.195.978-2.172 2.172-2.172h81.834c1.195 0 2.173.977 2.173 2.172a2.179 2.179 0 01-2.173 2.173zM692.094 495.179H610.26a2.18 2.18 0 01-2.173-2.173c0-1.195.978-2.172 2.173-2.172h81.834c1.195 0 2.173.977 2.173 2.172a2.18 2.18 0 01-2.173 2.173zM728.014 504.738H610.26a2.18 2.18 0 01-2.173-2.173 2.18 2.18 0 012.173-2.173h117.754a2.18 2.18 0 012.173 2.173 2.18 2.18 0 01-2.173 2.173zM636.362 514.297h-27.003a1.276 1.276 0 01-1.272-1.271v-1.801c0-.7.573-1.272 1.272-1.272h27.003c.7 0 1.272.572 1.272 1.272v1.801a1.274 1.274 0 01-1.272 1.271zM720.192 484.461H593.748a2.18 2.18 0 01-2.172-2.173 2.18 2.18 0 012.172-2.173h126.444a2.18 2.18 0 012.173 2.173 2.18 2.18 0 01-2.173 2.173z"/><path fill="#F8CD62" d="M596.139 526.464h-21.727a2.18 2.18 0 01-2.173-2.173c0-1.195.978-2.172 2.173-2.172h21.727c1.194 0 2.172.977 2.172 2.172a2.18 2.18 0 01-2.172 2.173z"/><path fill="#D7876C" d="M603.308 535.154h-21.726a2.18 2.18 0 01-2.173-2.173 2.18 2.18 0 012.173-2.173h21.726a2.18 2.18 0 012.173 2.173 2.18 2.18 0 01-2.173 2.173z"/><path fill="#FFF" d="M675.582 545.872h-81.834a2.18 2.18 0 01-2.172-2.173 2.18 2.18 0 012.172-2.172h81.834a2.18 2.18 0 012.173 2.172 2.179 2.179 0 01-2.173 2.173zM693.244 557.17H593.51a1.94 1.94 0 01-1.934-1.934v-.479a1.94 1.94 0 011.934-1.934h99.734a1.94 1.94 0 011.934 1.934v.479a1.94 1.94 0 01-1.934 1.934z"/><circle fill="#F8CD62" cx="602.873" cy="491.703" r="2.462"/><circle fill="#F8CD62" cx="602.873" cy="503" r="2.462"/><circle fill="#F8CD62" cx="602.873" cy="511.69" r="2.462"/><path fill="#D7876C" d="M601.348 572.23h-21.727a2.18 2.18 0 01-2.172-2.173 2.18 2.18 0 012.172-2.173h21.727a2.18 2.18 0 012.172 2.173 2.18 2.18 0 01-2.172 2.173z"/><path fill="#FFF" d="M673.622 582.948h-81.834a2.18 2.18 0 01-2.173-2.173c0-1.195.978-2.172 2.173-2.172h81.834c1.194 0 2.172.977 2.172 2.172a2.179 2.179 0 01-2.172 2.173zM690.134 604.964H608.3a2.18 2.18 0 01-2.173-2.173c0-1.195.978-2.172 2.173-2.172h81.834c1.194 0 2.172.977 2.172 2.172a2.18 2.18 0 01-2.172 2.173zM726.054 614.523H608.3a2.18 2.18 0 01-2.173-2.173 2.18 2.18 0 012.173-2.173h117.754a2.18 2.18 0 012.173 2.173 2.18 2.18 0 01-2.173 2.173zM634.402 624.082h-27.004a1.275 1.275 0 01-1.271-1.271v-1.801c0-.7.572-1.272 1.271-1.272h27.004c.699 0 1.271.572 1.271 1.272v1.801a1.274 1.274 0 01-1.271 1.271zM718.232 594.246H591.788a2.18 2.18 0 01-2.173-2.173 2.18 2.18 0 012.173-2.173h126.444a2.18 2.18 0 012.172 2.173 2.179 2.179 0 01-2.172 2.173z"/><circle fill="#F8CD62" cx="600.913" cy="601.487" r="2.462"/><circle fill="#F8CD62" cx="600.913" cy="612.785" r="2.462"/><circle fill="#F8CD62" cx="600.913" cy="621.475" r="2.462"/></g><g><path fill="#E48C82" d="M235.56 697.168l1.347-35.774 14.939 2.252-7.009 34.308z"/><path fill="#EA5F35" d="M235.514 693.657s-3.298 8.603-1.843 15.474h38.419s2.501-6.344-6.149-8.344c-8.65-1.998-19.703-8.812-19.703-8.812s-5.543 6.251-10.724 1.682z"/><path fill="#FFF" d="M233.66 709.131h38.419s.611-.818.178-2.877l-38.964-.703c0 1.311.103 2.335.367 3.58z"/><path fill="#333" d="M244.198 700.468c-.428-.248-.704-.741-.741-1.318-.034-.496.103-.979.236-1.398a19.346 19.346 0 011.293-3.086c.344-.648.744-1.315 1.349-1.799.862-.694 2.017-.905 3.03-1.018a22.602 22.602 0 012.562-.143h.158c1.151.003 2.47.105 3.515.847.465.329.679.748.589 1.142-.068.298-.313.549-.688.714-.366.16-.781.241-1.266.241-.471 0-.942-.074-1.383-.149a68.666 68.666 0 01-5.62-1.23c.199.974.276 1.966.239 2.955-.047 1.269-.292 2.293-.754 3.123-.279.496-.611.856-.989 1.07a1.737 1.737 0 01-.841.227 1.418 1.418 0 01-.689-.178zm2.453-7.211c-.536.428-.905 1.045-1.222 1.644a18.76 18.76 0 00-1.259 3.002c-.121.391-.239.804-.211 1.213.024.403.214.757.493.918.275.158.694.137 1.026-.049.298-.171.564-.466.797-.881.422-.76.648-1.709.691-2.897a11.846 11.846 0 00-.26-2.995 1.84 1.84 0 00-.055.045zm2.77-.911c-.682.077-1.38.188-1.997.452 1.796.475 3.65.881 5.515 1.206.818.137 1.736.217 2.363-.055.105-.047.354-.174.396-.367.05-.217-.167-.461-.391-.619-.931-.661-2.152-.751-3.226-.754h-.155c-.833 0-1.677.046-2.505.137zM272.257 706.506a.252.252 0 00.252-.248.252.252 0 00-.248-.254l-38.964-.704h-.003a.25.25 0 00-.251.248.253.253 0 00.248.255l38.963.703h.003z"/><path fill="#333" d="M243.994 705.933l.037-.003a.25.25 0 00.211-.285c-1.263-8.719-8.886-11.104-8.964-11.129-.114-.037-.27.037-.31.171-.04.13.034.272.167.313.071.021 7.395 2.322 8.61 10.719.02.123.125.214.249.214zM248.702 706.057c.04 0 .083-.01.124-.031l.154-.087a23.195 23.195 0 0111.274-2.98l9.729-.04c.14 0 .252-.115.252-.252a.25.25 0 00-.252-.25l-9.729.039a23.72 23.72 0 00-11.522 3.043l-.155.087a.26.26 0 00-.096.345.26.26 0 00.221.126zM256.8 701.225a.247.247 0 00.201-.103l1.883-2.574a.251.251 0 00-.404-.298l-1.759 2.404-13.37-6.563a.265.265 0 00-.338.114.257.257 0 00.114.338l13.561 6.655.112.027z"/><path fill="#E48C82" d="M319.177 697.168l-4.495-34.566 11.804.737 3.689 33.201z"/><path fill="#EA5F35" d="M319.13 693.657s-3.297 8.603-1.842 15.474h38.419s2.501-6.344-6.149-8.344c-8.65-1.998-19.703-8.812-19.703-8.812s-5.542 6.251-10.725 1.682z"/><path fill="#FFF" d="M317.277 709.131h38.419s.611-.818.178-2.877l-38.964-.703c0 1.311.104 2.335.367 3.58z"/><path fill="#333" d="M327.813 700.468c-.422-.248-.701-.741-.741-1.321-.031-.493.105-.98.238-1.396a18.729 18.729 0 011.294-3.086c.341-.648.744-1.312 1.346-1.799.865-.694 1.967-.899 3.03-1.018.85-.097 1.712-.143 2.564-.143h.158c1.151.003 2.469.105 3.511.847.469.329.683.744.593 1.142-.068.298-.313.552-.688.714a3.14 3.14 0 01-1.269.241c-.472 0-.958-.077-1.38-.149a68.42 68.42 0 01-5.62-1.23c.195.965.276 1.957.239 2.955-.05 1.278-.298 2.299-.757 3.123-.285.506-.608.856-.986 1.07a1.737 1.737 0 01-.841.227c-.25 0-.489-.059-.691-.177zm2.454-7.211c-.533.428-.902 1.045-1.219 1.644a18.495 18.495 0 00-1.26 3.002c-.12.391-.238.804-.214 1.21.028.406.218.76.49.921.282.155.701.134 1.033-.049.298-.171.558-.459.794-.885.422-.75.648-1.696.694-2.894a12.093 12.093 0 00-.261-2.995l-.057.046zm2.769-.911c-.683.077-1.377.188-1.994.452a65.49 65.49 0 005.515 1.206c.415.072.858.143 1.293.143.416 0 .763-.064 1.067-.197.105-.047.356-.174.399-.367.05-.217-.17-.461-.394-.619-.928-.661-2.149-.751-3.223-.754h-.155a22.881 22.881 0 00-2.508.136z"/><path fill="#EA5F35" d="M355.875 706.506a.25.25 0 00.003-.502l-38.963-.704h-.003a.252.252 0 00-.252.248.254.254 0 00.249.255l38.963.703h.003z"/><path fill="#333" d="M327.612 705.933l.037-.003a.25.25 0 00.211-.285c-1.266-8.719-8.889-11.104-8.967-11.129-.111-.037-.27.037-.311.171-.04.13.034.272.168.313.071.021 7.394 2.322 8.612 10.719.02.123.125.214.25.214zM332.319 706.057s.084-.01.125-.031l.154-.087a23.184 23.184 0 0111.271-2.98l9.729-.04c.14 0 .251-.115.251-.252a.249.249 0 00-.251-.25l-9.729.039a23.715 23.715 0 00-11.52 3.043l-.154.087a.258.258 0 00-.097.345.263.263 0 00.221.126zM340.418 701.225a.247.247 0 00.201-.103l1.883-2.574a.252.252 0 00-.404-.298l-1.759 2.404-13.37-6.563c-.127-.053-.279-.007-.338.114a.256.256 0 00.114.338l13.56 6.655a.279.279 0 00.113.027z"/><path fill="#E48C82" d="M234.031 521.822l-.456 12.833s-3.282 10.736-4.72 10.805c-1.437.068-11.145-4.874-11.145-4.874s3.637-5.806 7.517-12.552c.058-.101-.967-9.374-.967-9.374l9.771 3.162z"/><path fill="#E48C82" d="M233.37 529.881s1.569 4.232 2.119 10.715c.21 2.471 2.773 8.043 1.137 8.105-1.638.063-3.697-7.272-4.22-7.323s-2.757 3.507-2.757 3.507l.046-6.77 3.675-8.234z"/><path fill="#E48C82" d="M230.389 542.507s-3.495 15.407-4.818 15.333c-1.323-.072 1.171-12.711 1.171-12.711s-5.193 13.069-6.447 12.781c-1.253-.289 3.332-14.389 3.332-14.389s-7.385 11.523-8.411 10.951 5.332-12.667 5.332-12.667-7.466 8.046-8.37 7.513c-.905-.531 5.534-8.732 5.534-8.732l4.205-5.477 8.472 7.398z"/><g><path fill="#E48C82" d="M355.887 426.751l7.27-11.463s8.729-8.04 10.076-7.335 7.563 10.398 7.563 10.398-6.419 3.354-13.561 7.435c-.106.06-4.125 9.067-4.125 9.067l-7.223-8.102z"/></g><g><path fill="#E48C82" d="M360.794 419.752s.829-4.699 3.789-10.904c1.129-2.366 1.767-8.818 3.293-8.001 1.527.817-.512 8.608-.063 8.934s4.389-1.727 4.389-1.727l-3.658 6.149-7.75 5.549z"/></g><g><path fill="#E48C82" d="M370.257 409.828s11.417-12.188 12.585-11.414c1.168.774-7.856 10.971-7.856 10.971s11.718-9.147 12.707-8.215c.988.933-10.725 11.345-10.725 11.345s12.891-6.567 13.521-5.497-11.629 8.707-11.629 8.707 11.107-3.352 11.648-2.383-9.713 5.01-9.713 5.01l-6.762 2.749-3.776-11.273z"/></g><g><path fill="#E48C82" d="M305.09 438.864s22.89 27.684 25.513 29.686c17.603 13.437 36.145-42.595 36.145-42.595l-6.853-5.508s-21.054 27.523-20.827 26.873l-24.755-26.532-9.223 18.076z"/></g><g><path fill="#2B4054" d="M249.202 510.799l-15.998 176.915 18.577 2.02s27.193-139.196 29.886-150.504 12.385 60.31 15.077 70.54c2.692 10.231 15.616 78.752 15.616 78.752l18.98-2.02s-14.673-148.35-17.904-165.58c-3.23-17.232-3.23-21.539-3.23-21.539s-38.771 5.923-54.925 1.076l-6.079 10.34z"/></g><g><path fill="#37374F" d="M282.474 538.066a.183.183 0 00.18-.148c.024-.131 2.406-13.342.14-35.862-.01-.103-.087-.161-.202-.164a.182.182 0 00-.164.202c2.258 22.46-.111 35.625-.133 35.756-.02.1.046.195.146.214l.033.002z"/></g><g><path fill="#37374F" d="M283.146 533.623a.19.19 0 00.09-.022c.22-.12 5.452-3.011 6.274-4.935.813-1.898.564-25.844.552-26.864a.182.182 0 00-.183-.181h-.003c-.1 0-.184.084-.181.187.09 8.601.1 25.252-.527 26.716-.771 1.805-6.057 4.724-6.112 4.755a.186.186 0 00-.071.251.189.189 0 00.161.093z"/></g><g><path fill="#37374F" d="M245.725 686.281c.09 0 .171-.064.183-.158l21.807-151.043a.185.185 0 00-.155-.208c-.087.007-.195.056-.211.155L245.541 686.07a.187.187 0 00.158.211h.026z"/></g><g><path fill="#E48C82" d="M247.076 439.744s-10.045 40.179-10.045 42.188c0 2.01-1.507 25.112-3.516 48.215l-8.036-2.176s-4.688-34.152-2.344-54.242 9.375-41.854 9.375-41.854l14.566 7.869z"/></g><g><path fill="#37374F" d="M327.708 684.263h.016c.111-.016.18-.108.167-.208l-19.79-144.58c-.013-.102-.103-.164-.208-.158a.187.187 0 00-.158.208l19.791 144.58a.182.182 0 00.182.158z"/></g><g><path fill="#F8CD62" d="M265.782 403.264s-21.93 7.195-26.356 10.516-15.704 40.278-15.704 40.278 9.643 3.86 20.341 8.287l3.11-11.308s1.845 26.192 2.213 30.988c.369 4.795-1.476 30.987-1.476 30.987s38.366 12.174 66.033-1.476c0 0-4.796-28.036-4.796-31.725s1.107-30.988 1.107-30.988l10.697 12.912s12.543-11.805 15.863-19.921c0 0-23.241-29.881-28.037-32.095-4.795-2.213-22.534-6.457-22.534-6.457h-20.461z"/></g><g><path fill="#E48C82" d="M264.941 403.572a5.408 5.408 0 003.295-4.93l.104-11.667 17.365-.135v12.456a5.173 5.173 0 003.245 4.799 21.82 21.82 0 01-19.839 1.282l-4.17-1.805z"/></g><g><path fill="#B95151" d="M268.34 386.975l17.365-.134v8.937c-2.35 1.06-10.166 3.627-17.4-4.807l.035-3.996z"/></g><g><path fill="#B95151" d="M290.416 373.018s2.273-1.85 3.528-.572c1.329 1.352 1.029 5.912-3.403 6.408 0 0-.878-2.375-.125-5.836z"/><path fill="#E48C82" d="M264.751 379.326c1.582 4.009 2.966 7.23 5.625 10.401 3.833 4.571 8.517 6.005 12.571 4.923 3.808-1.018 7.15-7.198 8.385-15.648.69-4.725.5-11.333-.334-15.667-1.839-9.558-11.289-12.845-17.225-11.259-5.936 1.585-17.494 5.775-9.022 27.25z"/><path fill="#2B4054" d="M264.602 378.728s3.602-5.074 3.075-14.557c0 0 4.018-1.759 6.795-1.712 2.778.047 6.228 2.118 11.662 1.399 5.434-.718 7.475-4.995 7.475-4.995s-1.084.162-1.73.166c0 0 1.461-1.973 3.066-5.445 0 0-1.328.383-6.64.067 0 0 1.451-1.417 2.125-3.088 0 0-4.152 1.266-9.567.874-5.415-.393-12.498-.813-15.621 1.777s-3.236 3.069-3.236 3.069.789-3.997 2.218-4.949c0 0-3.503 1.908-3.415 5.589 0 0-2.051.491-3.095.924-1.044.433 2.584-.016 2.584-.016s-5.464 10.421 3.235 23.531l1.069-2.634z"/><path fill="#2B4054" d="M262.005 356.284s2.049-4.469 6.03-6.397c3.981-1.929 12.159-1.37 15.148-2.795 0 0-2.021 3.148-6.824 4.932s-8.472 4.022-8.472 4.022l-5.882.238zM288.805 362.707s2.176 6.448 2.894 9.92c0 0 .276-9.741-1.34-12.228s-1.554 2.308-1.554 2.308z"/><path fill="#E48C82" d="M266.222 378.024s-.405-4.716-5.037-2.425c-1.839.909-1.292 6.241 4.158 6.406 0-.001 1.82-.653.879-3.981z"/><path fill="#FFF" d="M286.188 358.596h.005-.005z" opacity=".25"/><path fill="#B95151" d="M281.451 383.111l-.134-.052c-.271-.312-.306-.585-.128-1.011.094-.228.34-.28.538-.322.057-.013.113-.024.164-.041l.174-.054c.316-.098.615-.191.867-.367.26-.182.489-.512.419-.84-.034-.161-.136-.307-.243-.461l-.024-.035a9.035 9.035 0 01-1.592-5.229.153.153 0 11.306.004 8.723 8.723 0 001.537 5.05l.024.035c.12.173.244.352.291.573.1.465-.201.915-.543 1.155-.291.203-.628.308-.953.408l-.171.054c-.06.019-.126.034-.193.048-.141.03-.286.061-.319.141-.132.316-.114.471.077.691a.152.152 0 01-.015.216l-.082.037z"/><path fill="#FFF" d="M274.953 385.206s5.647.87 11.096-.45c0 0-1.95 3.97-5.078 3.902-3.127-.069-6.018-3.452-6.018-3.452z"/></g></g><g><path fill="#C1DCF4" d="M326.15 226.036a34.113 34.113 0 00-1.111-10.292l7.993-7.319-4.743-8.658-9.879 3.132c-.164-.196-.304-.405-.473-.598a32.058 32.058 0 00-7.897-6.536l.955-10.457-9.175-2.962-5.109 9.218a30.437 30.437 0 00-10.62 1.061l-6.302-7.622-8.431 4.778 2.653 9.509c-.185.166-.382.306-.563.477-2.573 2.415-4.641 5.191-6.244 8.177l-10.112-.125-2.201 9.69 8.448 4.107a34.041 34.041 0 001.208 11.309l-7.679 7.402 4.86 8.588 9.563-3.312c.075.089.139.185.216.273a32.115 32.115 0 007.75 6.456l-.089 11.516 9.364 2.242 4.246-9.472a30.44 30.44 0 0010.771-1.125l7.186 7.876 8.253-5.102-3.204-9.679c.067-.063.142-.114.21-.178 2.663-2.5 4.778-5.388 6.403-8.494l10.032.802 2.699-9.555-8.978-5.127zm-16.51 14.841c-8.833 8.291-22.649 7.456-30.797-1.86-8.148-9.317-7.591-23.642 1.242-31.932s22.648-7.455 30.797 1.861c8.148 9.318 7.591 23.641-1.242 31.931z"/></g><g><path fill="#C1DCF4" d="M866.45 195.453a34.114 34.114 0 00-1.112-10.292l7.994-7.319-4.743-8.658-9.88 3.132c-.163-.196-.304-.405-.473-.598a32.04 32.04 0 00-7.897-6.536l.956-10.457-9.175-2.962-5.109 9.219a30.46 30.46 0 00-10.62 1.06l-6.303-7.622-8.431 4.778 2.654 9.509c-.186.165-.382.306-.563.477-2.574 2.415-4.641 5.191-6.244 8.178l-10.112-.126-2.201 9.69 8.447 4.107a34.068 34.068 0 001.209 11.309l-7.68 7.402 4.861 8.588 9.562-3.312c.076.089.139.185.216.273a32.1 32.1 0 007.751 6.456l-.089 11.516 9.363 2.242 4.247-9.472a30.44 30.44 0 0010.771-1.125l7.186 7.876 8.252-5.102-3.203-9.679c.067-.063.142-.114.21-.178 2.663-2.5 4.778-5.388 6.403-8.494l10.032.802 2.699-9.555-8.978-5.127zm-16.512 14.841c-8.833 8.291-22.648 7.456-30.797-1.86-8.148-9.317-7.591-23.642 1.242-31.932 8.834-8.29 22.649-7.455 30.798 1.861 8.149 9.318 7.591 23.641-1.243 31.931z"/></g><g><path fill="#C1DCF4" d="M807.859 108.808a17.08 17.08 0 00-.557-5.152l4.002-3.664-2.375-4.334-4.945 1.568c-.082-.098-.152-.203-.236-.299a16.062 16.062 0 00-3.954-3.272l.479-5.234-4.593-1.482-2.558 4.614a15.23 15.23 0 00-5.316.531l-3.154-3.815-4.221 2.392 1.328 4.76c-.092.083-.19.153-.281.239a15.936 15.936 0 00-3.126 4.093l-5.063-.063-1.102 4.851 4.229 2.056a17.073 17.073 0 00.605 5.661l-3.845 3.705 2.434 4.299 4.787-1.658c.038.045.069.093.107.137a16.038 16.038 0 003.88 3.231l-.044 5.765 4.688 1.122 2.125-4.741c1.81.137 3.633-.054 5.393-.563l3.597 3.942 4.131-2.554-1.604-4.845c.034-.031.071-.057.104-.089a15.912 15.912 0 003.206-4.252l5.022.401 1.351-4.783-4.494-2.567zm-8.265 7.429c-4.422 4.15-11.338 3.732-15.416-.931-4.079-4.664-3.8-11.835.621-15.985 4.423-4.149 11.338-3.731 15.417.932 4.079 4.664 3.8 11.834-.622 15.984z"/></g><g><path fill="#C1DCF4" d="M337.801 321.326a15.133 15.133 0 00-.493-4.559l3.541-3.242-2.101-3.835-4.376 1.388c-.073-.087-.135-.18-.21-.265a14.196 14.196 0 00-3.498-2.895l.424-4.631-4.064-1.312-2.263 4.083a13.469 13.469 0 00-4.704.47l-2.791-3.376-3.734 2.116 1.175 4.212c-.082.073-.169.135-.249.211a14.047 14.047 0 00-2.766 3.622l-4.479-.056-.976 4.292 3.742 1.819a15.096 15.096 0 00.535 5.009l-3.401 3.279 2.153 3.804 4.235-1.467c.034.04.062.082.096.121a14.193 14.193 0 003.433 2.859l-.039 5.101 4.147.993 1.881-4.195a13.478 13.478 0 004.771-.499l3.184 3.489 3.655-2.26-1.419-4.287c.029-.028.063-.05.093-.079a14.077 14.077 0 002.836-3.762l4.444.355 1.195-4.232-3.977-2.271zm-7.314 6.573c-3.913 3.672-10.032 3.303-13.642-.824-3.609-4.127-3.362-10.472.551-14.144 3.912-3.672 10.031-3.302 13.641.824 3.609 4.128 3.362 10.473-.55 14.144z"/></g><g><path fill="#E48C82" d="M526.781 697.193l.885-35.441-12.62-1.652-.988 34.322z"/><path fill="#F8CD62" d="M526.929 694.51s.955 7.804-.489 14.621h-38.124s-2.482-5.832 6.102-7.815 19.553-8.745 19.553-8.745 7.815 6.472 12.958 1.939z"/><path fill="#F0EBE9" d="M526.45 709.131h-38.124s-.606-.35-.178-2.391l38.847-.687c0 1.302-.283 1.843-.545 3.078z"/><path fill="#333" d="M514.479 700.948c-.379-.21-.697-.563-.982-1.063-.454-.82-.698-1.83-.752-3.098-.034-.977.047-1.966.237-2.935-1.83.487-3.708.901-5.578 1.22-.414.074-.901.148-1.376.148s-.888-.074-1.254-.236c-.38-.17-.617-.42-.678-.712-.088-.386.122-.8.59-1.132 1.023-.725 2.338-.834 3.483-.84h.163c.847 0 1.701.047 2.534.142 1.003.108 2.142.312 3.01 1.011.616.494 1.01 1.186 1.342 1.789a19.54 19.54 0 011.274 3.063c.143.434.271.895.236 1.383-.04.57-.318 1.071-.738 1.309-.196.115-.44.176-.691.176a1.661 1.661 0 01-.82-.225zm-1.234-4.175c.048 1.18.271 2.121.685 2.867.237.42.495.705.8.874.312.19.732.217 1.017.048.325-.19.461-.59.481-.908.034-.4-.088-.813-.21-1.2a18.563 18.563 0 00-1.24-2.981c-.305-.557-.671-1.193-1.213-1.627-.021-.021-.041-.034-.041-.034a10.848 10.848 0 00-.279 2.961zm-2.432-3.829a21.627 21.627 0 00-2.48-.143h-.163c-1.064.007-2.284.095-3.199.745-.102.075-.447.354-.386.617.04.184.264.312.393.366.299.128.644.196 1.051.196.44 0 .895-.074 1.295-.143a65.932 65.932 0 005.469-1.192c-.632-.27-1.337-.378-1.98-.446zM488.148 706.987h.006l38.666-.698a.255.255 0 00.244-.258.254.254 0 00-.25-.244h-.007l-38.666.699a.254.254 0 00-.244.257.254.254 0 00.251.244z"/><path fill="#333" d="M516.193 706.418c.122 0 .23-.088.244-.217 1.118-7.706 9.245-7.998 10.431-7.998.081 0 .136.008.136.008h.014a.254.254 0 00.251-.244.25.25 0 00-.244-.258c-.122.014-9.808-.285-11.075 8.424a.245.245 0 00.211.278l.032.007zM511.523 706.547c.089 0 .17-.047.217-.129a.246.246 0 00-.095-.339l-.155-.089a23.47 23.47 0 00-11.428-3.021l-9.657-.041a.254.254 0 00-.251.25c0 .137.115.252.251.252l9.657.04a23.025 23.025 0 0111.184 2.955l.156.088s.081.034.121.034zM503.485 701.748s.075-.007.108-.027l13.454-6.602a.25.25 0 00.115-.332c-.055-.121-.21-.195-.332-.115l-13.265 6.507-1.741-2.386c-.081-.115-.237-.115-.353-.055a.259.259 0 00-.055.354l1.864 2.555c.05.06.131.101.205.101z"/><path fill="#E48C82" d="M588.345 697.184l-5.338-39.024-13.987 2.945 6.602 33.307z"/><path fill="#F8CD62" d="M588.492 694.501s.955 7.813-.488 14.63h-38.125s-2.482-5.842 6.102-7.824c8.585-1.984 19.553-8.745 19.553-8.745s7.817 6.472 12.958 1.939z"/><path fill="#F0EBE9" d="M588.015 709.131H549.89s-.606-.358-.177-2.4l38.846-.686c.001 1.302-.284 1.851-.544 3.086z"/><path fill="#333" d="M576.04 700.941c-.387-.224-.705-.569-.983-1.064-.454-.819-.697-1.829-.752-3.104-.034-.977.047-1.959.237-2.928-1.823.48-3.701.895-5.578 1.22-.413.075-.895.149-1.362.149-.481 0-.895-.082-1.254-.237-.373-.156-.617-.407-.691-.712-.088-.387.129-.813.59-1.132 1.023-.726 2.338-.833 3.483-.841h.17c.819 0 1.674.048 2.528.137 1.003.115 2.148.324 3.009 1.016.616.502 1.023 1.187 1.342 1.789.516.977.942 2 1.281 3.057.143.461.265.908.237 1.383-.041.576-.313 1.064-.739 1.315a1.375 1.375 0 01-.685.177c-.284 0-.576-.082-.833-.225zm-1.233-4.181c.047 1.186.271 2.129.684 2.874.231.413.495.698.793.874.34.189.739.217 1.023.047.278-.162.468-.508.488-.908.027-.393-.088-.793-.21-1.205a18.204 18.204 0 00-1.254-2.977c-.291-.555-.657-1.186-1.206-1.626l-.041-.034a10.81 10.81 0 00-.277 2.955zm-2.434-3.829a21.931 21.931 0 00-2.474-.136h-.17c-1.063.007-2.284.096-3.198.746-.225.155-.441.399-.387.616.047.196.291.318.399.359.299.136.645.196 1.058.196a7.78 7.78 0 001.281-.135 67.608 67.608 0 005.469-1.2c-.609-.264-1.3-.372-1.978-.446zM549.716 706.98h.007l38.666-.698a.255.255 0 00.244-.257.252.252 0 00-.251-.244h-.007l-38.666.697a.255.255 0 00-.244.258.253.253 0 00.251.244z"/><path fill="#333" d="M577.762 706.411c.121 0 .23-.088.243-.217 1.193-8.249 10.167-7.991 10.566-7.991h.007a.25.25 0 00.007-.501h-.143c-1.233 0-9.753.298-10.925 8.425a.243.243 0 00.21.277c.014.007.021.007.035.007z"/><g><path fill="#333" d="M573.085 706.533a.243.243 0 00.217-.129.25.25 0 00-.095-.339l-.149-.081a23.5 23.5 0 00-11.434-3.023l-9.651-.04a.254.254 0 00-.251.251c0 .135.115.25.251.25l9.651.041a23.084 23.084 0 0111.189 2.955l.149.082c.001 0 .082.033.123.033z"/></g><g><path fill="#333" d="M565.053 701.741l.109-.026 13.453-6.602a.25.25 0 00.115-.332c-.062-.123-.196-.189-.332-.115l-13.271 6.506-1.742-2.385c-.095-.123-.244-.115-.353-.055a.256.256 0 00-.054.352l1.87 2.556a.277.277 0 00.205.101z"/></g><g><path fill="#E48C82" d="M555.513 402.332a6.084 6.084 0 01-4.231-4.825l-2.523-15.203-16.65 4.634-.863 16.887-2.436 1.1 6.127 6.99s12.409-.158 12.723-.393c.314-.236 7.147-4.557 7.147-4.557l.706-4.633z"/></g><g><path fill="#8DA9BD" d="M510.518 510.877s-1.676 20.106-1.676 25.133 2.514 149.96 2.514 149.96h19.688l9.215-135.718 28.903 133.623 19.269-.838-17.593-174.255-60.32 2.095z"/></g><g><path fill="#FFF" d="M529.786 404.48s-17.279 3.77-21.991 8.482c-4.713 4.713-12.881 29.217-12.881 29.217s2.514 5.97 16.965 8.797l1.257-3.927s-.785 28.274-.942 29.845c-.157 1.571-3.456 43.197-3.456 43.197s31.416 12.672 63.774.42l-.156-73.619.785 3.77s8.639 5.027 21.52-.941c0 0-3.455-32.674-10.995-38.014-7.54-5.342-28.746-9.74-28.746-9.74s-17.908 15.237-25.134 2.513z"/></g><g><path fill="#E48C82" d="M592.461 441.08s5.488 41.202 4.241 43.041c-4.084 6.021-7.54 10.053-56.392-10.054l2.356-6.126 34.453 2.514-4.294-25.762 19.636-3.613z"/></g><g><path fill="#FFF" d="M593.807 450.029c-10.352 4.492-17.769 1.94-19.968.928l-1.065-6.533 19.858-3.736s.506 3.892 1.175 9.341z"/></g><g><path fill="#E48C82" d="M533.035 466.403l-7.941-.909-4.732 3.704s-1.208 3.11 5.105-1.021l3.754.508-4.618 1.452-3.334 5.537s1.167.608 2.897-.716l-.629 2.345s2.243-.314 3.273-2.005l2.583-.838-2.146 2.848-.788 3.078s.893.906 2.62-2.549c1.064-2.129 2.786-1.981 2.786-1.981l4.202-4.64-3.032-4.813z"/></g><g><path fill="#E48C82" d="M549.265 477.445s-5.194-1.793-7.147-1.179c-1.954.614-12.84-.572-12.84-.572l-.128-9.719 12.198 1.239 6.89 1.738 1.027 8.493z"/></g><g><path fill="#2B4054" d="M451.133 431.417l66.136.882 8.52 48.33-65.694-.233z"/><path fill="#2B4054" d="M507.807 476.178l42.132.56-.056 4.184-42.132-.56z"/><g><circle fill="#FFF" cx="483.604" cy="452.862" r="5.677"/></g></g><g><path fill="#BB5151" d="M531.479 395.342v6.205s14.294.078 16.415-15.787c1.967-14.719-16.415 9.582-16.415 9.582z"/></g><g><path fill="#E48C82" d="M474.887 480.402s-2.828-3.566-3.771-5.477c-.942-1.911-2.827-6.242-4.241-5.987s1.257 6.368 1.257 6.368-3.22-7.96-5.419-8.533l1.649 8.979s-2.906-10.444-5.97-10.509c0 0 2.042 9.744 2.042 9.49 0-.255-2.12-8.853-3.849-9.234-1.728-.383.786 15.221 2.828 15.666 2.042.446 1.963-.318 3.612.191s2.749.637 4.556.637 5.184 1.338 18.929-1.528l-11.623-.063z"/></g><g><path fill="#BB5151" d="M521.598 378.953s-2.782-1.113-3.619.516c-.885 1.724.797 6.083 5.273 5.218 0 0 .135-2.584-1.654-5.734z"/><path fill="#E48C82" d="M549 378.75c-.936 2.942-1 7.75-2.75 11.5-2.523 5.406-6.679 8-10.875 8-6.145 0-16.375-13.75-16.375-28.75 0-9.734 8.105-14.75 14.25-14.75s22.75 2 15.75 24z"/><path fill="#254E5A" d="M520.031 368.399s-.16 6.955.195 10.563c0 0-3.234-9.424-2.414-12.342.822-2.919 2.219 1.779 2.219 1.779z"/><path fill="#BB5151" d="M533.634 385.992s.101-.045.124-.099c.184-.418.131-.719-.197-1.11-.175-.209-.452-.184-.675-.164l-.128.012-.261-.001c-.366 0-.714.001-1.037-.102-.334-.106-.686-.379-.72-.75-.017-.181.043-.369.104-.568l.015-.044a9.995 9.995 0 00-.042-6.05.171.171 0 00-.214-.108.167.167 0 00-.107.213c.615 1.88.63 3.955.039 5.843l-.014.044c-.07.222-.142.452-.119.701.048.524.514.901.955 1.042.374.119.764.118 1.141.117h.198c.069.001.145-.006.221-.013.158-.015.322-.03.384.043.243.29.276.46.146.756a.17.17 0 00.087.224c0 .003.067.02.1.014z"/><path fill="#FFF" d="M528.617 389.146s8.081-1.191 12.844-3.354c0 0-2.394 5.395-6.201 6.452-3.807 1.057-6.643-3.098-6.643-3.098z"/><path fill="#2B4054" d="M510.357 358.303c-.19 1.417.963 2.653 1.229 4.058.333 1.76-.761 3.515-.627 5.302.217 2.894 3.736 4.626 6.558 3.945 3.384-.816 6.089-4.08 9.563-3.859 1.646.104 3.227 1.013 4.856.767 1.738-.262 2.986-1.734 4.32-2.88 1.333-1.146 3.344-2.028 4.777-1.011.924.655 1.235 1.855 1.583 2.933a19.075 19.075 0 006.456 9.185c4.018-7.429 1.04-17.082-4.767-23.214-1.811-1.913-4.144-3.684-6.774-3.56-1.909.09-3.813 1.18-5.64.617-1.01-.312-1.802-1.083-2.731-1.586-2.265-1.226-5.369-.583-6.961 1.441-1.068 1.357-1.517 3.227-2.92 4.234-1.395 1.001-3.271.831-4.983.966-1.712.135-3.709.96-3.939 2.662z"/><path fill="#E48C82" d="M546.736 376.474s-1.041-4.726 4.177-3.9c2.072.328 3.161 5.698-2.108 7.518 0-.001-1.975-.083-2.069-3.618z"/></g></g><g fill="#FFF"><path d="M647.063 317.846c0-1.078.363-1.953 1.09-2.625s1.637-1.008 2.73-1.008c1.109 0 2.027.336 2.754 1.008s1.09 1.547 1.09 2.625c0 1.063-.359 1.926-1.078 2.59s-1.641.996-2.766.996c-1.109 0-2.023-.332-2.742-.996s-1.078-1.528-1.078-2.59zM690.052 321.174h-7.031l-13.688-22.453v22.453h-7.031v-34.125h7.031l13.711 22.5v-22.5h7.008v34.125zM717.924 306.338h-13.5v9.188h15.844v5.648h-22.875v-34.125h22.828v5.695h-15.797v8.133h13.5v5.461zM751.748 292.744h-10.453v28.43h-7.031v-28.43h-10.313v-5.695h27.797v5.695z"/></g><text transform="matrix(.9783 0 0 1 627.714 152.837)" fill="#F8CD62" font-family="'PTSans-Bold'" font-size="40">{...}</text><g><g fill="#FFF"><path d="M422.278 293.898h5.859v19.688c0 1.81-.4 3.408-1.201 4.795s-1.931 2.458-3.389 3.213-3.105 1.133-4.941 1.133c-3.008 0-5.352-.765-7.031-2.295-1.68-1.53-2.52-3.694-2.52-6.494h5.898c0 1.394.293 2.422.879 3.086s1.511.996 2.773.996c1.12 0 2.012-.384 2.676-1.152.664-.768.996-1.862.996-3.281v-19.689zM440.017 312.316v10.02h-5.859v-28.438h11.094c2.136 0 4.014.391 5.635 1.172s2.868 1.892 3.74 3.33c.872 1.439 1.309 3.076 1.309 4.912 0 2.787-.954 4.984-2.861 6.592-1.907 1.608-4.548 2.412-7.92 2.412h-5.138zm0-4.746h5.234c1.55 0 2.731-.364 3.545-1.094.813-.729 1.221-1.771 1.221-3.125 0-1.393-.41-2.52-1.23-3.379s-1.953-1.302-3.398-1.328h-5.371v8.926zM478.067 309.973h-11.25v7.656h13.203v4.707h-19.063v-28.438h19.023v4.746h-13.164v6.777h11.25v4.552zM506.958 318.742c-1.055 1.263-2.546 2.243-4.473 2.939s-4.063 1.045-6.406 1.045c-2.461 0-4.619-.537-6.475-1.611s-3.288-2.633-4.297-4.678c-1.009-2.044-1.526-4.446-1.553-7.207v-1.934c0-2.838.479-5.296 1.436-7.373s2.337-3.665 4.141-4.766c1.804-1.1 3.916-1.65 6.338-1.65 3.372 0 6.009.804 7.91 2.412 1.901 1.608 3.027 3.949 3.379 7.021h-5.703c-.261-1.627-.837-2.819-1.729-3.574-.892-.755-2.119-1.133-3.682-1.133-1.992 0-3.509.749-4.551 2.246-1.042 1.498-1.569 3.724-1.582 6.68v1.816c0 2.982.566 5.234 1.699 6.758s2.793 2.285 4.98 2.285c2.2 0 3.77-.469 4.707-1.406v-4.902h-5.332v-4.316h11.191v11.348z"/></g></g><g><g fill="#FFF"><path d="M417.882 543.816v12.023h-7.031v-34.125h13.313c2.563 0 4.816.469 6.762 1.406s3.441 2.27 4.488 3.996 1.57 3.691 1.57 5.895c0 3.344-1.145 5.98-3.434 7.91s-5.457 2.895-9.504 2.895h-6.164zm0-5.695h6.281c1.859 0 3.277-.438 4.254-1.313s1.465-2.125 1.465-3.75c0-1.672-.492-3.023-1.477-4.055s-2.344-1.563-4.078-1.594h-6.445v10.712zM443.012 555.84v-34.125h10.5c3 0 5.684.676 8.051 2.027s4.215 3.273 5.543 5.766 1.992 5.324 1.992 8.496v1.57c0 3.172-.652 5.992-1.957 8.461s-3.145 4.383-5.52 5.742-5.055 2.047-8.039 2.063h-10.57zm7.031-28.43v22.781h3.398c2.75 0 4.852-.898 6.305-2.695s2.195-4.367 2.227-7.711v-1.805c0-3.469-.719-6.098-2.156-7.887s-3.539-2.684-6.305-2.684h-3.469zM495.938 541.895h-13.5v13.945h-7.031v-34.125h22.219v5.695h-15.188v8.813h13.5v5.672z"/></g></g><g fill="#FFF"><path d="M429.39 360.977h-20.416v-4.051l9.635-10.27c1.323-1.444 2.303-2.707 2.936-3.784.635-1.077.952-2.1.952-3.068 0-1.322-.334-2.363-1.003-3.119-.669-.758-1.623-1.136-2.864-1.136-1.336 0-2.39.459-3.16 1.381-.771.92-1.155 2.131-1.155 3.631h-5.933c0-1.813.433-3.47 1.299-4.971.865-1.5 2.09-2.677 3.672-3.528 1.582-.853 3.376-1.279 5.38-1.279 3.068 0 5.452.736 7.149 2.209 1.698 1.474 2.547 3.553 2.547 6.239 0 1.474-.382 2.974-1.146 4.501s-2.073 3.308-3.927 5.339l-6.771 7.14h12.806v4.766zM455.153 348.661c0 4.119-.853 7.271-2.557 9.451-1.706 2.182-4.2 3.273-7.488 3.273-3.245 0-5.728-1.071-7.445-3.212s-2.598-5.209-2.639-9.206v-5.481c0-4.159.862-7.316 2.588-9.472 1.725-2.154 4.21-3.232 7.455-3.232 3.247 0 5.729 1.066 7.447 3.201s2.598 5.2 2.639 9.195v5.483zm-5.912-6.027c0-2.471-.338-4.27-1.012-5.396-.676-1.127-1.729-1.689-3.162-1.689-1.39 0-2.416.536-3.078 1.607-.661 1.071-1.013 2.747-1.053 5.026v7.249c0 2.43.33 4.235.991 5.416.662 1.181 1.722 1.771 3.181 1.771 1.446 0 2.489-.567 3.131-1.699.64-1.134.976-2.867 1.002-5.201v-7.084zM481.284 348.661c0 4.119-.853 7.271-2.557 9.451-1.705 2.182-4.2 3.273-7.487 3.273-3.246 0-5.729-1.071-7.445-3.212-1.719-2.141-2.599-5.209-2.64-9.206v-5.481c0-4.159.862-7.316 2.588-9.472 1.725-2.154 4.21-3.232 7.457-3.232 3.245 0 5.728 1.066 7.445 3.201 1.719 2.135 2.598 5.2 2.639 9.195v5.483zm-5.912-6.027c0-2.471-.337-4.27-1.012-5.396-.676-1.127-1.729-1.689-3.16-1.689-1.392 0-2.418.536-3.079 1.607-.662 1.071-1.013 2.747-1.054 5.026v7.249c0 2.43.33 4.235.992 5.416.661 1.181 1.721 1.771 3.181 1.771 1.445 0 2.488-.567 3.13-1.699.642-1.134.976-2.867 1.002-5.201v-7.084zM507.416 348.661c0 4.119-.853 7.271-2.557 9.451-1.705 2.182-4.201 3.273-7.487 3.273-3.246 0-5.728-1.071-7.446-3.212s-2.598-5.209-2.639-9.206v-5.481c0-4.159.862-7.316 2.587-9.472 1.725-2.154 4.211-3.232 7.457-3.232 3.245 0 5.728 1.066 7.446 3.201s2.599 5.2 2.639 9.195v5.483zm-5.913-6.027c0-2.471-.337-4.27-1.013-5.396-.675-1.127-1.728-1.689-3.16-1.689-1.392 0-2.418.536-3.078 1.607-.663 1.071-1.014 2.747-1.055 5.026v7.249c0 2.43.332 4.235.993 5.416.66 1.181 1.722 1.771 3.181 1.771 1.445 0 2.488-.567 3.129-1.699.642-1.134.976-2.867 1.003-5.201v-7.084z"/></g></svg>